<?xml version="1.0" encoding="UTF-8"?>
<svg id="Capa_1" data-name="Capa 1" xmlns="http://www.w3.org/2000/svg" viewBox="0 0 32 32">
  <defs>
    <style>
      .cls-1 {
        fill: #425059;
      }
    </style>
  </defs>
  <path class="cls-1" d="M27.19,21.53l-3.3-3.3c-1.18-1.18-3.18-.71-3.66,.83-.35,1.06-1.53,1.65-2.59,1.42-2.36-.59-5.54-3.66-6.13-6.13-.35-1.06,.35-2.24,1.42-2.59,1.53-.47,2-2.48,.83-3.66l-3.3-3.3c-.94-.83-2.36-.83-3.18,0l-2.24,2.24c-2.24,2.36,.24,8.61,5.78,14.15,5.54,5.54,11.79,8.14,14.15,5.78l2.24-2.24c.83-.94,.83-2.36,0-3.18Z"/>
</svg>