<?xml version="1.0" encoding="UTF-8"?>
<svg id="Capa_1" data-name="Capa 1" xmlns="http://www.w3.org/2000/svg" viewBox="0 0 32 32">
  <defs>
    <style>
      .cls-1 {
        fill: #425059;
      }
    </style>
  </defs>
  <path class="cls-1" d="M29.54,9.15c-.18-1.81-.88-3.41-2.23-4.7-1.42-1.35-3.15-1.95-5.05-2.05-3.23-.18-10.91-.29-13.61,.15-3.08,.5-5.1,2.3-5.95,5.34-.66,2.34-.53,13.13-.14,15.45,.52,3.16,2.39,5.19,5.53,6,2.17,.56,12.84,.49,15.23,.1,3.17-.51,5.2-2.37,6.03-5.5,.63-2.4,.41-12.63,.19-14.8Zm-2.53,13.75c-.37,2.4-1.96,3.89-4.38,4.16-2.22,.24-12.13,.38-14.19-.2-1.97-.55-3.1-1.9-3.42-3.89-.31-1.89-.39-11.35,0-13.89,.36-2.38,1.96-3.87,4.36-4.14,2.44-.27,11.21-.3,13.55,.05,2.4,.37,3.89,1.97,4.15,4.39,.25,2.26,.32,11.09-.06,13.51Zm-11-13.95c-3.9,0-7.06,3.16-7.06,7.05,0,3.9,3.16,7.06,7.05,7.06,3.9,0,7.06-3.16,7.06-7.05,0-3.9-3.16-7.06-7.05-7.06Zm-.05,11.61c-2.52-.02-4.54-2.08-4.52-4.6,.02-2.52,2.08-4.54,4.6-4.52,2.52,.02,4.54,2.08,4.52,4.6-.02,2.52-2.08,4.54-4.6,4.52Zm9.03-11.88c0,.91-.74,1.65-1.66,1.65-.91,0-1.65-.74-1.65-1.66,0-.91,.74-1.65,1.66-1.65,.91,0,1.65,.74,1.65,1.66Z"/>
  <path class="cls-1" d="M29.54,9.15c-.18-1.81-.88-3.41-2.23-4.7-1.42-1.35-3.15-1.95-5.05-2.05-3.23-.18-10.91-.29-13.61,.15-3.08,.5-5.1,2.3-5.95,5.34-.66,2.34-.53,13.13-.14,15.45,.52,3.16,2.39,5.19,5.53,6,2.17,.56,12.84,.49,15.23,.1,3.17-.51,5.2-2.37,6.03-5.5,.63-2.4,.41-12.63,.19-14.8Zm-2.53,13.75c-.37,2.4-1.96,3.89-4.38,4.16-2.22,.24-12.13,.38-14.19-.2-1.97-.55-3.1-1.9-3.42-3.89-.31-1.89-.39-11.35,0-13.89,.36-2.38,1.96-3.87,4.36-4.14,2.44-.27,11.21-.3,13.55,.05,2.4,.37,3.89,1.97,4.15,4.39,.25,2.26,.32,11.09-.06,13.51Zm-11-13.95c-3.9,0-7.06,3.16-7.06,7.05,0,3.9,3.16,7.06,7.05,7.06,3.9,0,7.06-3.16,7.06-7.05,0-3.9-3.16-7.06-7.05-7.06Zm-.05,11.61c-2.52-.02-4.54-2.08-4.52-4.6,.02-2.52,2.08-4.54,4.6-4.52,2.52,.02,4.54,2.08,4.52,4.6-.02,2.52-2.08,4.54-4.6,4.52Zm9.03-11.88c0,.91-.74,1.65-1.66,1.65-.91,0-1.65-.74-1.65-1.66,0-.91,.74-1.65,1.66-1.65,.91,0,1.65,.74,1.65,1.66Z"/>
</svg>