<?xml version="1.0" encoding="UTF-8"?>
<svg id="Capa_1" data-name="Capa 1" xmlns="http://www.w3.org/2000/svg" viewBox="0 0 470 235">
  <defs>
    <style>
      .cls-1 {
        fill: #eee;
      }
    </style>
  </defs>
  <g>
    <path class="cls-1" d="M168.65,84.83l-39.25,87.8h-2.92l-26.46-64.98-27.2,64.98h-3.1L32.66,84.83h16.91l21.82,62.37,27.83-64.59,2.64,.02,26.08,65.01,23.55-62.81h17.16Z"/>
    <path class="cls-1" d="M289.12,127.91c0,12.29-4.47,22.79-13.42,31.49-8.94,8.7-19.69,13.05-32.22,13.05s-23.46-4.35-32.4-13.05c-8.94-8.7-13.42-19.26-13.42-31.67s4.35-23.27,13.05-32.22c8.7-8.94,19.32-13.42,31.85-13.42s23.73,4.44,32.86,13.33c9.13,8.88,13.69,19.71,13.69,32.49Zm-13.69,0c0-8.83-3.01-16.36-9.04-22.59-6.02-6.23-13.36-9.35-22-9.35s-16.46,3-22.73,8.98c-6.27,5.99-9.4,13.28-9.4,21.87s3.04,16.03,9.13,22.32c6.08,6.29,13.44,9.43,22.09,9.43s16.12-2.96,22.45-8.89c6.33-5.93,9.49-13.19,9.49-21.78Z"/>
    <path class="cls-1" d="M437.34,169.7h-23.01s-43.62-43.37-43.62-43.37v43.37h-14.79V27.33h14.79V124.31l41.03-38.08,20.81,.05-43.4,38.51,48.19,44.9Z"/>
  </g>
  <g>
    <path class="cls-1" d="M44.88,197.81c-.59-.64-1.22-1.11-1.89-1.42s-1.41-.46-2.21-.46c-.65,0-1.29,.13-1.91,.4-.62,.26-1.16,.63-1.61,1.1-.47,.49-.83,1.04-1.06,1.64s-.35,1.27-.35,2c0,.57,.07,1.1,.21,1.58,.14,.48,.35,.93,.63,1.33,.49,.7,1.1,1.24,1.82,1.62s1.5,.57,2.34,.57c.79,0,1.52-.16,2.19-.49,.67-.33,1.29-.81,1.84-1.46v1.95c-.61,.44-1.27,.78-1.97,1.01-.71,.23-1.43,.34-2.19,.34-.65,0-1.29-.1-1.9-.29-.62-.19-1.2-.48-1.74-.85-.9-.62-1.58-1.39-2.06-2.3-.47-.91-.71-1.91-.71-3,0-.95,.16-1.81,.48-2.59,.32-.78,.8-1.48,1.45-2.12,.63-.61,1.33-1.06,2.09-1.36,.76-.3,1.6-.45,2.5-.45,.71,0,1.4,.11,2.07,.32,.67,.22,1.33,.55,1.98,1.01v1.91Z"/>
    <path class="cls-1" d="M68.97,201.05c0,.88-.16,1.71-.49,2.49-.33,.78-.8,1.47-1.42,2.08s-1.34,1.07-2.15,1.4c-.81,.33-1.65,.49-2.52,.49s-1.71-.16-2.52-.49c-.81-.33-1.52-.8-2.14-1.4-.63-.61-1.11-1.31-1.44-2.09-.33-.78-.49-1.61-.49-2.49s.16-1.71,.49-2.5c.33-.78,.81-1.48,1.44-2.09,.62-.6,1.33-1.06,2.14-1.39,.81-.33,1.65-.49,2.52-.49s1.72,.16,2.53,.49c.81,.33,1.53,.79,2.15,1.39,.62,.61,1.1,1.3,1.42,2.08s.49,1.62,.49,2.51Zm-6.59,5.09c.67,0,1.32-.13,1.93-.38,.61-.25,1.16-.63,1.65-1.12,.48-.48,.85-1.03,1.1-1.64,.25-.61,.38-1.26,.38-1.95s-.13-1.35-.38-1.97-.62-1.17-1.1-1.65c-.48-.48-1.03-.85-1.64-1.1-.61-.25-1.25-.38-1.93-.38s-1.33,.13-1.95,.38c-.61,.25-1.16,.62-1.63,1.1-.48,.49-.85,1.04-1.1,1.66-.25,.62-.38,1.27-.38,1.96s.12,1.33,.38,1.94,.62,1.16,1.11,1.65c.5,.49,1.04,.87,1.65,1.12,.6,.25,1.25,.38,1.93,.38Z"/>
    <path class="cls-1" d="M86.08,207.67l-3.83-8.86-1.55,8.38h-1.43l2.5-12.82,4.31,10.2,4.31-10.2,2.5,12.82h-1.43l-1.57-8.38-3.82,8.86Z"/>
    <path class="cls-1" d="M103.71,194.86h1.48v7.67c0,1.25,.27,2.16,.8,2.75,.53,.58,1.36,.88,2.5,.88s1.97-.29,2.5-.88c.53-.58,.8-1.5,.8-2.75v-7.67h1.49v7.67c0,1.67-.4,2.92-1.19,3.74-.79,.83-1.99,1.24-3.59,1.24s-2.79-.41-3.58-1.24c-.79-.83-1.19-2.08-1.19-3.74v-7.67Z"/>
    <path class="cls-1" d="M125.15,207.19v-12.82l9.02,9.86v-9.37h1.4v12.81l-9.02-9.75v9.27h-1.4Z"/>
    <path class="cls-1" d="M147.51,207.19v-12.33h1.47v12.33h-1.47Z"/>
    <path class="cls-1" d="M170.93,197.81c-.59-.64-1.22-1.11-1.89-1.42s-1.41-.46-2.22-.46c-.65,0-1.29,.13-1.91,.4-.62,.26-1.16,.63-1.61,1.1-.47,.49-.83,1.04-1.06,1.64-.24,.6-.35,1.27-.35,2,0,.57,.07,1.1,.21,1.58,.14,.48,.35,.93,.63,1.33,.49,.7,1.1,1.24,1.82,1.62s1.5,.57,2.34,.57c.79,0,1.52-.16,2.19-.49,.67-.33,1.29-.81,1.84-1.46v1.95c-.61,.44-1.27,.78-1.98,1.01-.7,.23-1.43,.34-2.19,.34-.65,0-1.29-.1-1.9-.29-.62-.19-1.2-.48-1.74-.85-.9-.62-1.58-1.39-2.06-2.3-.47-.91-.71-1.91-.71-3,0-.95,.16-1.81,.48-2.59,.32-.78,.8-1.48,1.45-2.12,.63-.61,1.33-1.06,2.09-1.36,.76-.3,1.6-.45,2.5-.45,.71,0,1.4,.11,2.07,.32,.67,.22,1.33,.55,1.98,1.01v1.91Z"/>
    <path class="cls-1" d="M186.3,194.37l5.61,12.82h-1.59l-1.6-3.78h-4.82l-1.6,3.78h-1.59l5.59-12.82Zm0,3.24l-1.96,4.54h3.92l-1.96-4.54Z"/>
    <path class="cls-1" d="M211.86,197.81c-.59-.64-1.22-1.11-1.89-1.42s-1.41-.46-2.22-.46c-.65,0-1.29,.13-1.91,.4-.62,.26-1.16,.63-1.61,1.1-.47,.49-.83,1.04-1.06,1.64-.24,.6-.35,1.27-.35,2,0,.57,.07,1.1,.21,1.58,.14,.48,.35,.93,.63,1.33,.49,.7,1.1,1.24,1.82,1.62s1.5,.57,2.34,.57c.79,0,1.52-.16,2.19-.49,.67-.33,1.29-.81,1.84-1.46v1.95c-.61,.44-1.27,.78-1.98,1.01-.7,.23-1.43,.34-2.19,.34-.65,0-1.29-.1-1.9-.29-.62-.19-1.2-.48-1.74-.85-.9-.62-1.58-1.39-2.06-2.3-.47-.91-.71-1.91-.71-3,0-.95,.16-1.81,.48-2.59,.32-.78,.8-1.48,1.45-2.12,.63-.61,1.33-1.06,2.09-1.36,.76-.3,1.6-.45,2.5-.45,.71,0,1.4,.11,2.07,.32,.67,.22,1.33,.55,1.98,1.01v1.91Z"/>
    <path class="cls-1" d="M223.35,207.19v-12.33h1.47v12.33h-1.47Z"/>
    <path class="cls-1" d="M249.38,201.05c0,.88-.16,1.71-.49,2.49-.33,.78-.8,1.47-1.42,2.08-.62,.61-1.34,1.07-2.15,1.4-.81,.33-1.65,.49-2.52,.49s-1.71-.16-2.52-.49c-.81-.33-1.52-.8-2.14-1.4-.63-.61-1.11-1.31-1.44-2.09-.33-.78-.49-1.61-.49-2.49s.16-1.71,.49-2.5,.81-1.48,1.44-2.09c.62-.6,1.33-1.06,2.14-1.39,.81-.33,1.65-.49,2.52-.49s1.72,.16,2.53,.49c.81,.33,1.53,.79,2.15,1.39,.62,.61,1.1,1.3,1.42,2.08s.49,1.62,.49,2.51Zm-6.59,5.09c.67,0,1.32-.13,1.93-.38,.61-.25,1.16-.63,1.65-1.12,.48-.48,.85-1.03,1.1-1.64,.25-.61,.38-1.26,.38-1.95s-.13-1.35-.38-1.97-.62-1.17-1.1-1.65c-.48-.48-1.03-.85-1.64-1.1-.61-.25-1.25-.38-1.94-.38s-1.33,.13-1.95,.38c-.61,.25-1.15,.62-1.63,1.1-.48,.49-.85,1.04-1.1,1.66-.25,.62-.38,1.27-.38,1.96s.12,1.33,.38,1.94,.62,1.16,1.11,1.65c.5,.49,1.04,.87,1.65,1.12,.6,.25,1.25,.38,1.93,.38Zm-1.21-12.51l1.72-2.93h1.69l-2.4,2.93h-1.01Z"/>
    <path class="cls-1" d="M260.74,207.19v-12.82l9.02,9.86v-9.37h1.4v12.81l-9.02-9.75v9.27h-1.4Z"/>
    <path class="cls-1" d="M299.85,207.19v-5.64l-4.18-6.69h1.69l3.23,5.35,3.21-5.35h1.68l-4.17,6.69v5.64h-1.47Z"/>
    <path class="cls-1" d="M330.03,207.19v-12.33h2.37c1.75,0,2.99,.09,3.7,.27,.72,.18,1.34,.47,1.88,.89,.71,.54,1.24,1.24,1.61,2.09,.37,.85,.55,1.83,.55,2.93s-.18,2.07-.54,2.92c-.36,.84-.9,1.54-1.61,2.08-.54,.42-1.15,.71-1.84,.89-.69,.18-1.76,.27-3.21,.27h-2.9Zm1.48-1.38h.94c1.52,0,2.57-.07,3.15-.2s1.07-.36,1.46-.68c.5-.42,.89-.96,1.15-1.63,.26-.67,.4-1.43,.4-2.29s-.13-1.62-.39-2.28c-.26-.65-.65-1.19-1.16-1.62-.39-.33-.88-.56-1.48-.7-.6-.14-1.64-.21-3.13-.21h-.94v9.59Z"/>
    <path class="cls-1" d="M351.53,207.19v-12.33h1.47v12.33h-1.47Z"/>
    <path class="cls-1" d="M369.44,200.34c.8,.34,1.41,.8,1.82,1.36s.61,1.24,.61,2.01c0,1.13-.36,2.05-1.08,2.74s-1.68,1.04-2.87,1.04c-.97,0-1.79-.25-2.44-.75s-1.1-1.2-1.33-2.12l1.33-.66c.18,.75,.48,1.31,.89,1.7,.41,.38,.93,.58,1.55,.58,.74,0,1.33-.21,1.79-.64,.46-.42,.68-.98,.68-1.66,0-.55-.16-1.03-.48-1.44s-.8-.75-1.44-1.03l-1.5-.64c-.82-.34-1.43-.78-1.83-1.32s-.6-1.19-.6-1.94c0-.88,.33-1.6,.98-2.17,.65-.57,1.48-.86,2.49-.86,.74,0,1.38,.16,1.92,.47s.96,.78,1.27,1.39l-1.21,.77c-.28-.48-.58-.83-.93-1.07-.34-.23-.73-.35-1.16-.35-.55,0-1,.17-1.35,.51-.35,.34-.53,.77-.53,1.29,0,.44,.13,.82,.4,1.14,.27,.32,.69,.6,1.26,.85l1.76,.78Z"/>
    <path class="cls-1" d="M382.79,207.19v-12.33h6.5v1.34h-5.04v3.54h5.04v1.36h-5.04v4.73h5.04v1.36h-6.5Z"/>
    <path class="cls-1" d="M400.74,207.19v-12.82l9.02,9.86v-9.37h1.4v12.81l-9.02-9.75v9.27h-1.4Zm7.68-15.9c-.11,.57-.31,1.01-.59,1.31-.28,.3-.64,.45-1.07,.45-.07,0-.16,0-.25-.03-.09-.02-.2-.04-.3-.07l-.81-.22c-.07-.02-.14-.04-.21-.05s-.14-.02-.2-.02c-.17,0-.32,.05-.45,.15-.13,.1-.23,.24-.31,.43h-.74c.1-.56,.29-.98,.57-1.28,.28-.3,.63-.45,1.05-.45,.09,0,.18,0,.27,.02,.08,.01,.16,.03,.23,.05l.83,.24c.13,.03,.22,.06,.29,.07,.06,.01,.12,.02,.17,.02,.18,0,.34-.05,.48-.15,.13-.1,.24-.26,.32-.46h.74Z"/>
    <path class="cls-1" d="M435.7,201.05c0,.88-.16,1.71-.49,2.49-.33,.78-.8,1.47-1.42,2.08-.62,.61-1.34,1.07-2.15,1.4-.81,.33-1.65,.49-2.52,.49s-1.71-.16-2.52-.49c-.81-.33-1.52-.8-2.14-1.4-.63-.61-1.11-1.31-1.44-2.09-.33-.78-.49-1.61-.49-2.49s.16-1.71,.49-2.5,.81-1.48,1.44-2.09c.62-.6,1.33-1.06,2.14-1.39,.81-.33,1.65-.49,2.52-.49s1.72,.16,2.53,.49c.81,.33,1.53,.79,2.15,1.39,.62,.61,1.1,1.3,1.42,2.08s.49,1.62,.49,2.51Zm-6.59,5.09c.67,0,1.32-.13,1.93-.38,.61-.25,1.16-.63,1.65-1.12,.48-.48,.85-1.03,1.1-1.64,.25-.61,.38-1.26,.38-1.95s-.13-1.35-.38-1.97-.62-1.17-1.1-1.65c-.48-.48-1.03-.85-1.64-1.1-.61-.25-1.25-.38-1.94-.38s-1.33,.13-1.95,.38c-.61,.25-1.15,.62-1.63,1.1-.48,.49-.85,1.04-1.1,1.66-.25,.62-.38,1.27-.38,1.96s.12,1.33,.38,1.94,.62,1.16,1.11,1.65c.5,.49,1.04,.87,1.65,1.12,.6,.25,1.25,.38,1.93,.38Z"/>
  </g>
</svg>