<?xml version="1.0" encoding="UTF-8"?>
<svg id="Capa_1" data-name="Capa 1" xmlns="http://www.w3.org/2000/svg" viewBox="0 0 48 48">
  <defs>
    <style>
      .cls-1, .cls-2 {
        fill: #fff;
      }

      .cls-2 {
        fill-rule: evenodd;
      }

      .cls-3 {
        fill: #e5e5e5;
      }

      .cls-4 {
        fill: #64b161;
      }
    </style>
  </defs>
  <path class="cls-3" d="M6.58,43.73c-.22,0-.44-.09-.6-.25-.21-.21-.29-.52-.21-.81l2.56-9.36c-1.6-2.89-2.44-6.15-2.44-9.46,0-10.78,8.77-19.54,19.55-19.54,5.23,0,10.14,2.04,13.83,5.73,3.69,3.69,5.72,8.6,5.72,13.83,0,10.78-8.77,19.54-19.55,19.54h0c-3.15,0-6.27-.77-9.05-2.22l-9.6,2.52c-.07,.02-.14,.03-.21,.03Z"/>
  <path class="cls-1" d="M6.58,42.89l2.65-9.69c-1.64-2.84-2.5-6.05-2.5-9.35,0-10.31,8.4-18.7,18.71-18.7,5,0,9.7,1.95,13.23,5.49,3.53,3.54,5.48,8.24,5.48,13.23,0,10.31-8.4,18.71-18.71,18.71,0,0,0,0,0,0h0c-3.13,0-6.21-.79-8.94-2.28l-9.92,2.6Zm10.38-5.99l.57,.34c2.39,1.42,5.12,2.17,7.92,2.17h0c8.57,0,15.55-6.97,15.55-15.55,0-4.15-1.61-8.06-4.55-11-2.94-2.94-6.84-4.56-10.99-4.56-8.58,0-15.55,6.97-15.56,15.55,0,2.94,.82,5.8,2.38,8.27l.37,.59-1.57,5.74,5.89-1.54Z"/>
  <path class="cls-4" d="M7.23,42.23l2.56-9.36c-1.58-2.74-2.41-5.85-2.41-9.03,0-9.96,8.11-18.06,18.06-18.06,4.83,0,9.37,1.88,12.78,5.3,3.41,3.41,5.29,7.95,5.29,12.77,0,9.96-8.11,18.06-18.06,18.06,0,0,0,0,0,0h0c-3.02,0-5.99-.76-8.63-2.2l-9.58,2.51Z"/>
  <g>
    <path class="cls-1" d="M6.58,42.89l2.65-9.69c-1.64-2.84-2.5-6.05-2.5-9.35,0-10.31,8.4-18.7,18.71-18.7,5,0,9.7,1.95,13.23,5.49,3.53,3.54,5.48,8.24,5.48,13.23,0,10.31-8.4,18.71-18.71,18.71,0,0,0,0,0,0h0c-3.13,0-6.21-.79-8.94-2.28l-9.92,2.6Zm10.38-5.99l.57,.34c2.39,1.42,5.12,2.17,7.92,2.17h0c8.57,0,15.55-6.97,15.55-15.55,0-4.15-1.61-8.06-4.55-11-2.94-2.94-6.84-4.56-10.99-4.56-8.58,0-15.55,6.97-15.56,15.55,0,2.94,.82,5.8,2.38,8.27l.37,.59-1.57,5.74,5.89-1.54Z"/>
    <path class="cls-2" d="M20.77,16.02c-.35-.78-.72-.79-1.05-.81-.27-.01-.58-.01-.9-.01s-.82,.12-1.25,.59c-.43,.47-1.64,1.6-1.64,3.9s1.68,4.52,1.91,4.84c.23,.31,3.23,5.18,7.99,7.06,3.95,1.56,4.75,1.25,5.61,1.17s2.77-1.13,3.16-2.22c.39-1.09,.39-2.03,.27-2.22-.12-.19-.43-.31-.9-.55s-2.77-1.37-3.19-1.52c-.43-.16-.74-.23-1.05,.23-.31,.47-1.21,1.52-1.48,1.83-.27,.31-.55,.35-1.01,.12-.47-.23-1.97-.73-3.76-2.32-1.39-1.24-2.33-2.77-2.6-3.24-.27-.47,0-.7,.21-.95,.38-.46,1.01-1.29,1.17-1.6,.16-.31,.08-.59-.04-.82-.12-.23-1.03-2.55-1.44-3.47Z"/>
  </g>
</svg>